# xmcd CD database file
#
# Track frame offsets:
#	150
#	30655
#	50850
#	77474
#
# Disc length: 1473 seconds
#
# Revision: 0
# Processed by: cddbd v1.4PL0 Copyright (c) Steve Scherf et al.
# Submitted via: CDex 1.50beta10
#
DISCID=2905bf04
DTITLE=Poor Line Condition - EP 1
DYEAR=1900
DGENRE=Jazz
TTITLE0=breakfast club
TTITLE1=keep pennsylvania beautiful
TTITLE2=m.i.a.
TTITLE3=right at the top
EXTD=
EXTT0=
EXTT1=
EXTT2=
EXTT3=
PLAYORDER=
